<?xml version="1.0" encoding="UTF-8" standalone="no"?>
<!-- Created with Inkscape (http://www.inkscape.org/) -->

<svg
   width="108.04979mm"
   height="121.93394mm"
   viewBox="0 0 108.04979 121.93394"
   version="1.1"
   id="svg5"
   inkscape:version="1.1.2 (b8e25be833, 2022-02-05)"
   sodipodi:docname="stopwatch.svg"
   xmlns:inkscape="http://www.inkscape.org/namespaces/inkscape"
   xmlns:sodipodi="http://sodipodi.sourceforge.net/DTD/sodipodi-0.dtd"
   xmlns="http://www.w3.org/2000/svg"
   xmlns:svg="http://www.w3.org/2000/svg">
  <sodipodi:namedview
     id="namedview7"
     pagecolor="#ffffff"
     bordercolor="#666666"
     borderopacity="1.0"
     inkscape:pageshadow="2"
     inkscape:pageopacity="0.0"
     inkscape:pagecheckerboard="0"
     inkscape:document-units="mm"
     showgrid="false"
     inkscape:zoom="1.3746491"
     inkscape:cx="598.3345"
     inkscape:cy="243.33482"
     inkscape:window-width="3440"
     inkscape:window-height="1361"
     inkscape:window-x="-9"
     inkscape:window-y="-9"
     inkscape:window-maximized="1"
     inkscape:current-layer="layer1" />
  <defs
     id="defs2" />
  <g
     inkscape:label="Layer 1"
     inkscape:groupmode="layer"
     id="layer1"
     transform="translate(129.44677,-84.50766)">
    <g
       id="g1228"
       transform="matrix(0.93765312,0,0,0.99526448,-166.16516,-12.817584)">
      <path
         style="fill:#000000;stroke-width:0.264583"
         id="path124"
         d="m 110.25284,124.45152 c -3.06077,-1.26292 -6.30116,-2.10319 -9.59315,-2.47665 -0.993957,-0.11276 -1.994553,-0.15628 -2.991828,-0.23442 -6.186226,-0.15746 -12.418666,0.31041 -18.470816,1.63999 -1.397006,0.30691 -2.774887,0.69518 -4.16233,1.04277 -6.058162,1.95589 -11.817972,4.7611 -16.894908,8.6273 -3.405095,2.59305 -4.234735,3.62238 -7.213015,6.60821 -4.453871,4.76568 -8.026106,10.332 -9.880335,16.62582 -0.38439,1.30474 -0.635551,2.64509 -0.953326,3.96763 -1.070007,6.77934 -1.448334,13.79876 0.109575,20.54334 0.306943,1.32883 0.760836,2.61939 1.141253,3.92908 1.273808,3.61562 2.993398,7.04775 5.257919,10.14818 2.299145,3.14783 5.067904,5.87506 7.831056,8.60333 5.649611,5.04446 12.271208,8.91028 19.236266,11.84775 1.284343,0.54166 2.602217,1.00011 3.903327,1.50016 5.244724,1.71634 10.719628,2.76018 16.245935,2.88135 3.699549,0.0811 4.680122,-0.13602 8.383907,-0.51271 5.13974,-0.62142 10.14509,-2.02367 14.93831,-3.96244 2.67146,-1.08056 4.00103,-1.77713 6.56262,-3.02044 5.39036,-2.70306 10.17688,-6.43729 14.27297,-10.85217 0.77643,-0.83684 1.49422,-1.72624 2.24132,-2.58937 2.8451,-3.6985 5.02332,-7.8766 6.11038,-12.43349 0.73619,-3.08605 0.66065,-4.01007 0.87032,-7.18611 0.15813,-6.70473 -1.3473,-13.30244 -3.43275,-19.63808 -0.39692,-1.20588 -0.85186,-2.39188 -1.2778,-3.58782 -2.01634,-5.33081 -4.69494,-10.46315 -8.4987,-14.75233 -0.76705,-0.86493 -1.61843,-1.65123 -2.42764,-2.47684 -2.67779,-2.4751 -5.7089,-4.47729 -8.99312,-6.0532 -2.66687,-1.27967 -5.15767,-2.1264 -7.93974,-3.16148 -2.68719,-0.99823 -4.0989,2.80203 -1.41171,3.80027 v 0 c 2.54828,0.9451 4.99419,1.78015 7.44784,2.94048 2.92138,1.38152 5.62234,3.13781 8.01037,5.32064 0.71645,0.72129 1.47149,1.4062 2.14934,2.16388 3.52318,3.93812 5.98503,8.67024 7.84515,13.58098 0.40596,1.13551 0.83952,2.26152 1.21788,3.40652 1.94031,5.87184 3.38152,11.98587 3.26481,18.20352 -0.16209,2.75657 -0.0934,3.60647 -0.70933,6.28151 -0.92266,4.00706 -2.81676,7.68226 -5.29418,10.94262 -0.68428,0.79518 -1.34113,1.6148 -2.05282,2.38554 -3.77562,4.0889 -8.18221,7.55906 -13.1644,10.05862 -2.3978,1.16653 -3.71518,1.85532 -6.20748,2.86834 -4.47174,1.81756 -9.13948,3.14506 -13.93824,3.72831 -3.385624,0.35566 -4.333517,0.56319 -7.713336,0.49921 -5.116507,-0.0969 -10.188128,-1.05051 -15.049318,-2.6209 -1.221258,-0.46649 -2.458548,-0.89298 -3.663772,-1.39945 -6.533819,-2.74568 -12.762185,-6.3419 -18.079641,-11.04919 -2.561008,-2.52302 -5.145066,-5.04273 -7.29035,-7.9441 -2.044552,-2.76513 -3.598463,-5.8317 -4.755896,-9.06422 -0.345697,-1.16092 -0.758404,-2.30395 -1.037084,-3.48275 -1.466234,-6.20205 -1.103358,-12.66715 -0.158732,-18.91072 0.27673,-1.18331 0.492429,-2.38258 0.830191,-3.54994 1.657318,-5.72796 4.889942,-10.78676 8.933852,-15.12103 2.733326,-2.75885 3.517593,-3.73285 6.640938,-6.13005 4.678006,-3.59043 9.992932,-6.19431 15.58049,-8.0321 3.358232,-0.84732 4.396716,-1.19094 7.800626,-1.73017 4.467113,-0.70767 9.018542,-0.94046 13.535162,-0.84204 0.896324,0.0666 1.795542,0.10172 2.68897,0.19978 2.91999,0.32049 5.7962,1.05114 8.51662,2.15478 2.60619,1.19384 4.29453,-2.49186 1.68835,-3.6857 z" />
      <path
         style="fill:#000000;stroke-width:0.264583"
         id="path130"
         d="m 93.207402,164.48385 c -2.333233,-1.20208 -5.009054,-0.79909 -7.189549,0.5769 -0.548915,0.34639 -1.02112,0.80155 -1.531681,1.20233 -0.407985,0.44912 -0.873101,0.85234 -1.223957,1.34738 -1.110792,1.56726 -1.653522,3.43161 -1.427657,5.34981 0.174979,1.48607 0.509653,1.8519 1.177237,3.13581 1.350542,1.84667 3.224937,3.20207 5.478804,3.69555 0.370699,0.0812 0.751416,0.10675 1.127127,0.16013 2.485877,0.0786 4.665353,-0.99379 6.710918,-2.28872 2.413619,-1.71703 3.059544,-3.43572 3.282011,-6.29472 -0.04076,-0.41505 -0.02111,-0.84056 -0.122296,-1.24515 -0.608668,-2.43409 -2.627844,-4.24933 -4.498533,-5.75781 -2.244399,-1.78329 -4.76635,1.39078 -2.52195,3.17407 v 0 c 0.866823,0.67457 1.617043,1.36863 2.320367,2.2162 0.155675,0.18761 0.299839,0.38447 0.448564,0.57763 0.07756,0.10074 0.180967,0.18686 0.230288,0.30404 0.06272,0.14902 0.0651,0.31674 0.09765,0.47512 -0.02477,0.67578 -0.06928,1.62659 -0.448046,2.21846 -0.25995,0.40621 -0.600381,0.61923 -0.973378,0.91759 -1.228317,0.79781 -2.532824,1.53861 -4.020145,1.68092 -1.530636,-0.14448 -2.541511,-0.66769 -3.579185,-1.82291 -0.131856,-0.1966 -0.287767,-0.37905 -0.395566,-0.5898 -0.514908,-1.00668 -0.458962,-2.26421 0.15353,-3.22389 0.209844,-0.3288 0.502907,-0.59636 0.754359,-0.89454 1.201224,-1.06004 2.537325,-2.12365 4.186994,-1.36796 2.50771,1.38883 4.471807,-2.15761 1.964097,-3.54644 z" />
      <path
         style="fill:#000000;stroke-width:0.264583"
         id="path132"
         d="m 90.541905,124.60887 c 0.246285,3.02215 0.475057,6.03725 0.535337,9.07063 -7.94e-4,0.74145 -0.0016,1.4829 -0.0024,2.22436 -0.0024,2.86661 4.051665,2.86991 4.053998,0.003 v 0 c 5.29e-4,-0.77011 0.0011,-1.54022 0.0013,-2.31033 -0.06367,-3.04873 -0.276204,-6.0811 -0.536572,-9.11784 -0.09184,-2.86514 -4.143753,-2.73526 -4.051919,0.12988 z" />
      <path
         style="fill:#000000;stroke-width:0.264583"
         id="path142"
         d="m 131.00351,173.14119 c 2.03303,0.0374 4.04579,-0.31051 6.06679,-0.4739 1.54742,-0.12322 3.09806,-0.0862 4.6473,-0.0444 2.86563,0.0748 2.97145,-3.97779 0.10581,-4.05262 v 0 c -1.69553,-0.0429 -3.39256,-0.0805 -5.0858,0.0567 -1.78609,0.14943 -3.56157,0.41672 -5.35465,0.47802 -2.85402,-0.26832 -3.23348,3.76788 -0.37945,4.0362 z" />
      <path
         style="fill:#000000;stroke-width:0.264583"
         id="path146"
         d="m 91.079951,204.48742 c 0.04653,2.39198 -0.05579,4.78173 -0.25527,7.16477 -0.226195,2.29281 -0.112556,1.19511 -0.338349,3.29335 -0.306551,2.85017 3.724198,3.2837 4.030752,0.43353 v 0 c 0.231696,-2.15526 0.114822,-1.02457 0.347771,-3.39237 0.210191,-2.56451 0.325311,-5.13671 0.263586,-7.71052 -0.149365,-2.86271 -4.197858,-2.65148 -4.04849,0.21124 z" />
      <path
         style="fill:#000000;stroke-width:0.264583"
         id="path150"
         d="m 42.861553,174.42757 c 2.918399,-0.24735 5.836343,-0.51346 8.755412,-0.76028 2.856418,-0.24151 2.514862,-4.2811 -0.341556,-4.03958 v 0 c -2.8165,0.23814 -5.632876,0.47929 -8.446548,0.74599 -2.866517,0.0231 -2.833825,4.07698 0.03269,4.05387 z" />
      <path
         style="fill:#000000;stroke-width:0.264583"
         id="path152"
         d="m 117.74786,133.627 c -0.61518,0.90273 -1.24303,1.79673 -1.86558,2.69438 -1.63366,2.35555 1.6976,4.66588 3.33125,2.31033 v 0 c 0.61727,-0.89004 1.2399,-1.77639 1.84967,-2.67159 1.64977,-2.3443 -1.66557,-4.67742 -3.31534,-2.33312 z" />
      <path
         style="fill:#000000;stroke-width:0.264583"
         id="path160"
         d="m 132.83029,154.76294 c 1.03483,-0.41334 1.90882,-1.11428 2.78818,-1.78094 2.28291,-1.73373 -0.16895,-4.96224 -2.45185,-3.22851 v 0 c -0.50252,0.3824 -1.02286,0.74854 -1.52094,1.13239 -2.74149,0.83764 -1.55689,4.7147 1.18461,3.87706 z" />
      <path
         style="fill:#000000;stroke-width:0.264583"
         id="path162"
         d="m 132.87234,197.77641 c 0.70408,0.59121 0.31874,0.26733 1.15584,0.97189 2.19328,1.8458 4.80363,-1.25598 2.61034,-3.10177 v 0 c -0.92675,-0.77982 -0.4655,-0.3966 -1.38346,-1.14999 -2.31923,-1.68483 -4.70194,1.59504 -2.38272,3.27987 z" />
      <path
         style="fill:#000000;stroke-width:0.264583"
         id="path164"
         d="m 114.05149,208.69224 c 0.44166,0.75966 0.85929,1.53285 1.27924,2.3046 1.3704,2.51782 4.93115,0.57979 3.56074,-1.93804 v 0 c -0.43461,-0.79836 -0.86691,-1.59817 -1.32372,-2.38418 -1.42667,-2.48637 -4.94293,-0.46875 -3.51626,2.01762 z" />
      <path
         style="fill:#000000;stroke-width:0.264583"
         id="path168"
         d="m 69.475164,205.65443 c -0.467471,1.00903 -0.235842,0.48818 -0.692383,1.56365 -1.117473,2.63983 2.615811,4.22018 3.733284,1.58035 v 0 c 0.379204,-0.89872 0.19495,-0.47951 0.548468,-1.2595 1.332542,-2.53807 -2.256827,-4.42257 -3.589369,-1.8845 z" />
      <path
         style="fill:#000000;stroke-width:0.264583"
         id="path170"
         d="m 53.649811,194.14625 c 0.107098,-0.0956 0.214199,-0.1912 0.321297,-0.2868 2.049885,-2.00386 -0.78399,-4.90283 -2.833876,-2.89898 v 0 c -0.231746,0.23564 -0.463491,0.47127 -0.695237,0.7069 -1.752831,2.26827 1.454986,4.74715 3.207816,2.47888 z" />
      <path
         style="fill:#000000;stroke-width:0.264583"
         id="path182"
         d="m 48.466028,148.80265 c 1.45593,0.58966 2.750121,1.40462 3.934637,2.42755 0.239535,0.20865 0.47907,0.41729 0.718603,0.62594 2.16182,1.88255 4.824145,-1.17473 2.662327,-3.05728 v 0 c -0.250891,-0.21842 -0.501779,-0.43684 -0.752668,-0.65527 -1.476219,-1.244 -3.065404,-2.28738 -4.860242,-3.02005 -2.601526,-1.20396 -4.304183,2.47515 -1.702657,3.67911 z" />
      <path
         style="fill:#000000;stroke-width:0.264583"
         id="path184"
         d="m 67.731203,133.75853 c 0.815776,0.76254 1.490429,1.61687 2.075174,2.56348 1.515155,2.43347 4.956599,0.29072 3.441444,-2.14275 v 0 c -0.740548,-1.18226 -1.582963,-2.27085 -2.597161,-3.2335 -1.988928,-2.06437 -4.908386,0.7484 -2.919457,2.81277 z" />
      <path
         style="fill:#000000;stroke-width:0.264583"
         id="path357"
         d="m 89.007047,183.14419 c 0.319227,-0.88951 0.666276,-1.76876 1.003162,-2.65168 1.021919,-2.67827 -2.765729,-4.12348 -3.787645,-1.44521 v 0 c -0.376989,0.98803 -0.770652,1.97029 -1.11034,2.97205 -0.795385,2.75405 3.099435,3.8789 3.894823,1.12484 z" />
      <path
         style="fill:#000000;stroke-width:0.264583"
         id="path359"
         d="m 96.899974,166.15712 c 0.936533,-2.43796 1.862064,-4.88016 2.823372,-7.30864 2.022964,-5.29482 4.303044,-10.48377 6.594994,-15.66595 1.48748,-3.37321 2.95774,-6.75465 4.29894,-10.18902 1.04224,-2.67043 -2.73431,-4.14438 -3.77655,-1.47396 v 0 c -1.31804,3.37916 -2.76807,6.70424 -4.22998,10.02324 -2.31348,5.2311 -4.614239,10.46935 -6.656931,15.81385 -0.936778,2.36751 -1.848472,4.74473 -2.746414,7.12721 -1.18318,2.61104 2.50939,4.28431 3.692569,1.67327 z" />
      <path
         style="fill:#000000;stroke-width:0.264583"
         id="path365"
         d="m 130.73313,128.05571 c -1.07866,1.41778 -1.97652,2.95748 -2.86678,4.49655 -1.43336,2.48253 2.07746,4.5096 3.51082,2.02708 v 0 c 0.81464,-1.41377 1.63588,-2.82873 2.62711,-4.12896 1.69329,-2.31305 -1.57787,-4.70773 -3.27115,-2.39467 z" />
      <path
         style="fill:#000000;stroke-width:0.264583"
         id="path377"
         d="m 128.08728,125.93903 c 3.02453,0.93681 5.68858,2.67451 8.30626,4.40671 0.55231,0.42599 1.10462,0.85198 1.65693,1.27797 2.27412,1.74523 4.74225,-1.47087 2.46812,-3.2161 v 0 c -0.63013,-0.48145 -1.26025,-0.96289 -1.89038,-1.44434 -2.86038,-1.88689 -5.77969,-3.76711 -9.07535,-4.80406 -2.67273,-1.03632 -4.13831,2.7435 -1.46558,3.77982 z" />
      <path
         style="fill:#000000;stroke-width:0.264583"
         id="path397"
         d="m 86.484427,111.05425 c 0.675018,2.55448 0.881372,5.19262 1.051092,7.81911 0.02463,0.44614 0.04924,0.89227 0.07386,1.33841 0.158162,2.86225 4.205986,2.63857 4.047823,-0.22367 v 0 c -0.0254,-0.45921 -0.05081,-0.91841 -0.07622,-1.37762 -0.196877,-3.01394 -0.443193,-6.04949 -1.294228,-8.96236 -0.994286,-2.68865 -4.796613,-1.28253 -3.80233,1.40613 z" />
      <path
         style="fill:#000000;stroke-width:0.264583"
         id="path405"
         d="m 93.841519,109.33797 c -0.121233,2.137 0.0763,4.27358 0.114429,6.40962 0.01275,0.71479 0.0034,1.4298 0.0051,2.1447 -0.04885,2.68109 -0.02347,1.38572 -0.07544,3.88612 -0.05955,2.86599 3.993571,2.95021 4.053123,0.0842 v 0 c 0.05276,-2.53981 0.02699,-1.21251 0.07629,-3.98191 -0.0024,-0.75741 0.0061,-1.51493 -0.0075,-2.27222 -0.03657,-2.03531 -0.227446,-4.07118 -0.115326,-6.10741 0.115345,-2.86429 -3.935371,-3.02741 -4.050716,-0.16312 z" />
      <path
         style="fill:#000000;stroke-width:0.264583"
         id="path407"
         d="m 83.587454,110.49457 c 3.028413,-0.79766 6.189647,-0.91129 9.30017,-1.10064 2.505893,-0.12685 5.013566,-0.20563 7.521556,-0.27445 2.86553,-0.0787 2.75417,-4.13121 -0.11135,-4.05247 v 0 c -2.55335,0.0703 -5.106386,0.15037 -7.657554,0.28048 -3.406622,0.20907 -6.864951,0.35251 -10.175761,1.25171 -2.754445,0.79404 -1.631503,4.68941 1.122939,3.89537 z" />
      <path
         style="fill:#000000;stroke-width:0.264583"
         id="path409"
         d="m 98.44421,117.44596 c 1.491155,-0.61525 2.99769,-1.27226 4.2883,-2.26016 0.47927,-0.36686 0.9094,-0.79383 1.3641,-1.19074 1.41547,-1.55961 2.85033,-3.3632 3.19349,-5.5172 0.2201,-1.38157 0.0348,-1.67765 -0.24437,-2.99639 -0.95052,-2.49301 -2.70309,-4.12741 -5.01833,-5.39465 -0.53134,-0.290817 -1.09177,-0.524987 -1.63765,-0.787484 -2.923662,-1.234068 -6.053696,-1.725302 -9.214229,-1.425434 -0.643503,0.06106 -1.27967,0.183687 -1.919507,0.275532 -3.147639,0.632925 -6.166196,1.923256 -8.628583,4.018586 -0.49276,0.41931 -0.929857,0.89994 -1.394786,1.34992 -1.653923,1.92846 -2.97412,3.998 -2.622288,6.68042 0.236067,1.79981 0.73047,2.33139 1.597665,3.86075 1.294837,1.84329 3.024376,3.0638 5.107663,3.88018 0.620842,0.24329 1.276315,0.38673 1.914474,0.5801 2.751733,0.80338 3.88788,-3.08816 1.136148,-3.89154 v 0 c -1.938542,-0.53616 -3.403272,-0.98285 -4.681562,-2.65376 -0.344331,-0.52192 -0.852821,-1.1767 -1.020572,-1.81416 -0.398605,-1.51473 0.522462,-2.65442 1.414717,-3.75516 0.328604,-0.3324 0.634113,-0.68935 0.985813,-0.99721 1.924656,-1.68475 4.301707,-2.72523 6.785994,-3.24799 0.512974,-0.0791 1.022802,-0.18235 1.53892,-0.23733 2.489123,-0.26519 4.953622,0.0873 7.268146,1.04249 1.742417,0.80419 3.561977,1.71808 4.458277,3.51295 0.10952,0.28799 0.27792,0.63314 0.25661,0.95686 -0.0907,1.3789 -1.15983,2.53333 -1.97881,3.53893 -0.29718,0.27564 -0.57383,0.57523 -0.89156,0.82692 -1.173719,0.92975 -2.58812,1.45863 -3.941744,2.05577 -2.538373,1.33196 -0.654699,4.92176 1.883674,3.5898 z" />
      <path
         style="fill:#000000;stroke-width:0.264583"
         id="path1200"
         d="m 52.693673,127.52654 c 1.07866,1.41778 1.97652,2.95748 2.86678,4.49655 1.433357,2.48253 -2.07746,4.5096 -3.51082,2.02708 v 0 c -0.814637,-1.41377 -1.635877,-2.82873 -2.627107,-4.12896 -1.69329,-2.31305 1.57787,-4.70773 3.271147,-2.39467 z" />
      <path
         style="fill:#000000;stroke-width:0.264583"
         id="path1202"
         d="m 55.339523,125.40986 c -3.02453,0.93681 -5.688577,2.67451 -8.306257,4.40671 -0.55231,0.42599 -1.104617,0.85198 -1.656927,1.27797 -2.27412,1.74523 -4.742247,-1.47087 -2.46812,-3.2161 v 0 c 0.63013,-0.48145 1.26025,-0.96289 1.89038,-1.44434 2.860377,-1.88689 5.779687,-3.76711 9.075344,-4.80406 2.67273,-1.03632 4.138307,2.7435 1.46558,3.77982 z" />
    </g>
  </g>
</svg>
